<svg width="68" height="87" viewBox="0 0 68 87" fill="none" xmlns="http://www.w3.org/2000/svg">
<g clip-path="url(#clip0_2008_1164)">
<path d="M34.83 73.61C34.5527 73.5864 34.2829 73.5074 34.0367 73.3776C33.7905 73.2479 33.5728 73.0701 33.3965 72.8546C33.2203 72.6392 33.0891 72.3907 33.0107 72.1236C32.9323 71.8566 32.9082 71.5765 32.94 71.3C32.9834 70.8153 33.197 70.3616 33.5429 70.0193C33.8889 69.677 34.3448 69.4682 34.83 69.43C45.04 69.43 53.34 62.43 53.34 53.78C53.2896 53.2332 53.4565 52.6884 53.8046 52.2637C54.1526 51.8389 54.6539 51.5681 55.2 51.51C55.4699 51.491 55.7408 51.5253 55.9975 51.6109C56.2541 51.6966 56.4913 51.832 56.6956 52.0093C56.8999 52.1867 57.0672 52.4026 57.1881 52.6446C57.309 52.8867 57.381 53.1501 57.4 53.42C57.41 53.5398 57.41 53.6602 57.4 53.78C57.36 64.69 47.28 73.61 34.83 73.61ZM34 0.300018C30.88 0.300018 0 40.38 0 57.67C0 74.96 15.21 86.35 34 86.35C52.79 86.35 68 74.94 68 57.67C68 40.4 37.12 0.300018 34 0.300018ZM34 82.09C16.72 82.09 4.16998 71.81 4.16998 57.67C4.16998 44.46 26.8 13.08 34 5.60002C41.21 13.09 63.83 44.47 63.83 57.68C63.83 71.82 51.29 82.1 34 82.1V82.09Z" fill="#3B6BF6"/>
</g>
<defs>
<clipPath id="clip0_2008_1164">
<rect width="68" height="87" fill="white"/>
</clipPath>
</defs>
</svg>
